<?xml version="1.0" encoding="UTF-8"?>
<svg id="Layer_2" data-name="Layer 2" xmlns="http://www.w3.org/2000/svg" viewBox="0 0 383.02 421.24">
  <defs>
    <style>
      .cls-1 {
        fill: #fff;
      }

      .cls-2 {
        fill: #6844ce;
        fill-rule: evenodd;
      }
    </style>
  </defs>
  <g id="Main_icon" data-name="Main icon">
    <g>
      <path class="cls-2" d="m383,119.37c0-16.65-11.31-35.97-25.11-42.93L216.63,5.22c-13.81-6.96-36.41-6.96-50.23,0L25.12,76.44C11.31,83.4,0,102.72,0,119.37v182.49c0,16.65,11.31,35.97,25.12,42.94l141.29,71.23c13.81,6.95,36.42,6.95,50.23,0l141.28-71.23c13.81-6.96,25.11-26.28,25.11-42.94l-.03-182.49Z"/>
      <path class="cls-1" d="m344.61,342.18L222.46,33.26c-1.21-3.05-5.26-4.81-9.03-3.92h0c-14.25,3.37-29.09,3.37-43.34,0h0c-3.77-.89-7.82.87-9.03,3.92L38.92,342.18c-2.27,5.74,3.28,11.33,10.72,10.81l43.25-3.02c6.09-.43,11.33-3.84,13.11-8.55l27.23-71.88c1.43-3.78,5.05-6.28,9.09-6.28h48.36c5.37,0,9.72-4.35,9.72-9.72v-27.49c0-5.37-4.35-9.72-9.72-9.72h-23.2c-6.8,0-11.5-6.81-9.09-13.17l30.69-81.01c.94-2.47,4.44-2.47,5.38,0l83.07,219.27c1.79,4.71,7.02,8.13,13.11,8.55l43.25,3.02c7.44.52,12.99-5.08,10.72-10.81Z"/>
    </g>
  </g>
</svg>